<svg xmlns="http://www.w3.org/2000/svg" width="32" height="32" viewBox="0 0 32 32">
  <g id="Group_34" data-name="Group 34" transform="translate(-256 -390)">
    <g id="brain_neuron_intelligence_mind" transform="translate(246.154 380.407)">
      <path id="Path_10" data-name="Path 10" d="M29.792,19.12a3.541,3.541,0,1,1,3.541-3.541" transform="translate(-7.274 0)" fill="none" stroke="#000" stroke-linecap="round" stroke-miterlimit="10" stroke-width="1.5"/>
      <path id="Path_11" data-name="Path 11" d="M33.494,59.217a3.485,3.485,0,1,1-6.054-2.443l1.98-2.155" transform="translate(-7.428 -24.022)" fill="none" stroke="#000" stroke-linecap="round" stroke-miterlimit="10" stroke-width="1.5"/>
      <path id="Path_12" data-name="Path 12" d="M48.281,32.46l.272.293a3.486,3.486,0,0,1-4.365,5.342,3.447,3.447,0,0,1-1.658-2.9V15.578a3.52,3.52,0,0,1,3.516-3.541,3.715,3.715,0,0,1,2.3.869" transform="translate(-16.457 0)" fill="none" stroke="#000" stroke-linecap="round" stroke-miterlimit="10" stroke-width="1.5"/>
      <path id="Path_13" data-name="Path 13" d="M16.9,20.955c-.952.5-1.813,1.638-1.179,4.177,0,0-5.013,4.359-.436,8.826,0,0-1.308,5.884,3.7,6.211" transform="translate(0 -5.031)" fill="none" stroke="#000" stroke-linecap="round" stroke-linejoin="round" stroke-miterlimit="10" stroke-width="1.5"/>
      <path id="Path_14" data-name="Path 14" d="M37.557,14.878a1.852,1.852,0,1,1-2.29,2.912" transform="translate(-12.36 -1.603)" fill="none" stroke="#000" stroke-linecap="round" stroke-miterlimit="10" stroke-width="1.5"/>
      <path id="Path_15" data-name="Path 15" d="M27.289,31.2a1.853,1.853,0,1,1,.884-3.6" transform="translate(-7.063 -8.749)" fill="none" stroke="#000" stroke-linecap="round" stroke-miterlimit="10" stroke-width="1.5"/>
      <path id="Path_16" data-name="Path 16" d="M32.323,37.693a1.909,1.909,0,0,0-2.706.128s-2.843,4.5-4.95,4.5" transform="translate(-6.38 -14.19)" fill="none" stroke="#000" stroke-linecap="round" stroke-miterlimit="10" stroke-width="1.5"/>
      <path id="Path_17" data-name="Path 17" d="M36.745,61.162a1.339,1.339,0,0,1,2.517.694" transform="translate(-13.194 -27.316)" fill="none" stroke="#000" stroke-linecap="round" stroke-miterlimit="10" stroke-width="1.5"/>
      <path id="Path_18" data-name="Path 18" d="M25.625,56.161l1.967.692" transform="translate(-6.921 -24.892)" fill="none" stroke="#000" stroke-linecap="round" stroke-miterlimit="10" stroke-width="1.5"/>
      <path id="Path_19" data-name="Path 19" d="M22.75,40.536a11.671,11.671,0,0,1,3.16,2.288" transform="translate(-5.299 -16.077)" fill="none" stroke="#000" stroke-linecap="round" stroke-miterlimit="10" stroke-width="1.5"/>
      <g id="Group_6" data-name="Group 6" transform="translate(26.07 14.715)">
        <path id="Path_20" data-name="Path 20" d="M48.781,24.059a3.114,3.114,0,0,1,3.6,1.8" transform="translate(-46.054 -21.447)" fill="none" stroke="#000" stroke-linecap="round" stroke-miterlimit="10" stroke-width="1.5"/>
        <path id="Path_21" data-name="Path 21" d="M52.885,53.6a3.125,3.125,0,0,1-1.3,2.667,3.263,3.263,0,0,1-2.178.67" transform="translate(-46.405 -38.164)" fill="none" stroke="#000" stroke-linecap="round" stroke-miterlimit="10" stroke-width="1.5"/>
        <path id="Path_22" data-name="Path 22" d="M45.577,52.161a1.859,1.859,0,0,0-2.215-.544,1.477,1.477,0,0,0-.836,1.238" transform="translate(-42.524 -36.953)" fill="none" stroke="#000" stroke-linecap="round" stroke-miterlimit="10" stroke-width="1.5"/>
        <path id="Path_23" data-name="Path 23" d="M61.99,30.536s5.013,4.359.436,8.826c0,0,1.308,5.884-3.7,6.211" transform="translate(-51.661 -25.151)" fill="none" stroke="#000" stroke-linecap="round" stroke-linejoin="round" stroke-miterlimit="10" stroke-width="1.5"/>
        <path id="Path_24" data-name="Path 24" d="M42.888,42.388s3.542.954,5.035-1.751" transform="translate(-42.729 -30.849)" fill="none" stroke="#000" stroke-linecap="round" stroke-miterlimit="10" stroke-width="1.5"/>
        <path id="Path_25" data-name="Path 25" d="M52.5,43.108s2.345,1.893,4.251-.2" transform="translate(-48.154 -32.132)" fill="none" stroke="#000" stroke-linecap="round" stroke-miterlimit="10" stroke-width="1.5"/>
        <path id="Path_26" data-name="Path 26" d="M51.842,20.646a3.433,3.433,0,1,1,6.182,2.823" transform="translate(-47.781 -18.181)" fill="none" stroke="#000" stroke-linecap="round" stroke-miterlimit="10" stroke-width="1.5"/>
        <path id="Path_27" data-name="Path 27" d="M42.669,30.561s1.927,1.624,3.161,1.624" transform="translate(-42.606 -25.165)" fill="none" stroke="#000" stroke-linecap="round" stroke-miterlimit="10" stroke-width="1.5"/>
      </g>
      <path id="Path_28" data-name="Path 28" d="M64.764,29.462a11.04,11.04,0,0,0-1.125-.83" transform="translate(-28.365 -9.362)" fill="none" stroke="#000" stroke-linecap="round" stroke-linejoin="round" stroke-miterlimit="10" stroke-width="1.5"/>
    </g>
    <rect id="Rectangle_6" data-name="Rectangle 6" width="32" height="32" transform="translate(256 390)" fill="none"/>
  </g>
</svg>
