<svg width="40" height="40" viewBox="0 0 40 40" fill="none" xmlns="http://www.w3.org/2000/svg">
<g clip-path="url(#clip0_17_75)">
<path d="M15.84 11.9087C14.9646 11.9087 14.1088 11.6491 13.3809 11.1628C12.653 10.6764 12.0857 9.98511 11.7507 9.17632C11.4157 8.36753 11.328 7.47756 11.4988 6.61895C11.6696 5.76034 12.0911 4.97166 12.7102 4.35263C13.3292 3.73361 14.1179 3.31205 14.9765 3.14126C15.8351 2.97048 16.7251 3.05813 17.5338 3.39314C18.3426 3.72816 19.0339 4.29548 19.5203 5.02337C20.0066 5.75127 20.2662 6.60704 20.2662 7.48247" stroke="black" stroke-width="2" stroke-miterlimit="10" stroke-linecap="round"/>
<path d="M20.275 32.0025C20.2569 32.7058 20.0688 33.3943 19.7267 34.0091C19.3846 34.6239 18.8986 35.1467 18.3104 35.5327C17.7222 35.9188 17.0493 36.1566 16.3491 36.2259C15.649 36.2952 14.9424 36.1938 14.29 35.9305C13.6375 35.6672 13.0586 35.2498 12.6026 34.714C12.1466 34.1782 11.8272 33.5399 11.6717 32.8538C11.5162 32.1676 11.5291 31.454 11.7095 30.7739C11.8899 30.0939 12.2323 29.4676 12.7075 28.9488L15.1825 26.255" stroke="black" stroke-width="2" stroke-miterlimit="10" stroke-linecap="round"/>
<path d="M27.4725 28.5837L27.8125 28.95C28.5184 29.7224 28.9228 30.723 28.9517 31.769C28.9807 32.815 28.6323 33.8365 27.9702 34.6468C27.3081 35.4571 26.3765 36.0021 25.3458 36.1821C24.315 36.3622 23.2538 36.1653 22.3562 35.6275C21.7319 35.2485 21.2141 34.7169 20.8515 34.0828C20.489 33.4487 20.2936 32.7329 20.2837 32.0025V7.48124C20.2803 6.90164 20.3914 6.32707 20.6106 5.79053C20.8299 5.25399 21.153 4.76606 21.5614 4.35476C21.9698 3.94347 22.4554 3.61691 22.9904 3.39386C23.5254 3.1708 24.0991 3.05564 24.6787 3.05499C25.7326 3.08026 26.7465 3.46334 27.5537 4.14124" stroke="black" stroke-width="2" stroke-miterlimit="10" stroke-linecap="round"/>
<path d="M8.81749 7.91376C7.62749 8.53876 6.55124 9.96126 7.34374 13.135C7.34374 13.135 1.07749 18.5838 6.79874 24.1675C6.79874 24.1675 5.16374 31.5225 11.4237 31.9313" stroke="black" stroke-width="2" stroke-miterlimit="10" stroke-linecap="round" stroke-linejoin="round"/>
<path d="M19.1887 4.60248C19.4277 4.79043 19.6274 5.02362 19.7763 5.28873C19.9252 5.55384 20.0204 5.84568 20.0565 6.14759C20.0926 6.4495 20.0688 6.75556 19.9867 7.0483C19.9045 7.34104 19.7654 7.61472 19.5775 7.85373C19.3895 8.09273 19.1563 8.29238 18.8912 8.44127C18.6261 8.59015 18.3343 8.68536 18.0324 8.72146C17.7305 8.75756 17.4244 8.73384 17.1317 8.65166C16.8389 8.56947 16.5652 8.43043 16.3262 8.24248" stroke="black" stroke-width="2" stroke-miterlimit="10" stroke-linecap="round"/>
<path d="M12.975 16.0725C12.6795 16 12.4012 15.8699 12.156 15.6898C11.9108 15.5097 11.7034 15.2831 11.5458 15.0228C11.3882 14.7626 11.2834 14.4739 11.2373 14.1731C11.1913 13.8724 11.2049 13.5655 11.2775 13.27C11.35 12.9745 11.4801 12.6963 11.6602 12.451C11.8403 12.2058 12.0669 11.9985 12.3272 11.8409C12.5874 11.6832 12.8761 11.5784 13.1769 11.5324C13.4776 11.4863 13.7845 11.5 14.08 11.5725" stroke="black" stroke-width="2" stroke-miterlimit="10" stroke-linecap="round"/>
<path d="M20.1212 17.3875C19.8891 17.1749 19.6173 17.0103 19.3213 16.9032C19.0253 16.7961 18.7111 16.7487 18.3967 16.7635C18.0823 16.7784 17.7739 16.8553 17.4894 16.9899C17.2048 17.1244 16.9497 17.3139 16.7387 17.5475C16.7387 17.5475 13.185 23.1725 10.5512 23.1725" stroke="black" stroke-width="2" stroke-miterlimit="10" stroke-linecap="round"/>
<path d="M17.1312 30.3162C17.3108 29.9823 17.5985 29.7191 17.9471 29.57C18.2958 29.4209 18.6847 29.3945 19.0503 29.4953C19.4159 29.5961 19.7364 29.8181 19.9593 30.1248C20.1823 30.4316 20.2945 30.8049 20.2775 31.1837" stroke="black" stroke-width="2" stroke-miterlimit="10" stroke-linecap="round"/>
<path d="M11.0725 27.095L13.5312 27.96" stroke="black" stroke-width="2" stroke-miterlimit="10" stroke-linecap="round"/>
<path d="M9.50624 18.5825C10.974 19.3075 12.3094 20.2743 13.4562 21.4425" stroke="black" stroke-width="2" stroke-miterlimit="10" stroke-linecap="round"/>
<path d="M23.6887 9.6675C24.5838 9.44939 25.5271 9.55579 26.3511 9.96777C27.1751 10.3798 27.8262 11.0706 28.1887 11.9175" stroke="black" stroke-width="2" stroke-miterlimit="10" stroke-linecap="round"/>
<path d="M28.38 25.6975C28.4066 26.3443 28.272 26.9876 27.9884 27.5695C27.7047 28.1514 27.2809 28.6537 26.755 29.0313C25.9776 29.6285 25.0111 29.9258 24.0325 29.8688" stroke="black" stroke-width="2" stroke-miterlimit="10" stroke-linecap="round"/>
<path d="M24.0962 25.4125C23.7758 25.0077 23.3298 24.7211 22.8284 24.5979C22.327 24.4748 21.799 24.5221 21.3275 24.7325C21.0315 24.8742 20.7786 25.0924 20.5949 25.3644C20.4112 25.6364 20.3034 25.9524 20.2825 26.28" stroke="black" stroke-width="2" stroke-miterlimit="10" stroke-linecap="round"/>
<path d="M33.1912 13.1337C33.1912 13.1337 39.4575 18.5825 33.7362 24.1662C33.7362 24.1662 35.3712 31.5212 29.1112 31.93" stroke="black" stroke-width="2" stroke-miterlimit="10" stroke-linecap="round" stroke-linejoin="round"/>
<path d="M20.4787 20.8263C20.4787 20.8263 24.9062 22.0188 26.7725 18.6375" stroke="black" stroke-width="2" stroke-miterlimit="10" stroke-linecap="round"/>
<path d="M25.7125 20.1225C25.7125 20.1225 28.6437 22.4887 31.0262 19.8725" stroke="black" stroke-width="2" stroke-miterlimit="10" stroke-linecap="round"/>
<path d="M25.3562 9.48373C25.5295 8.89347 25.8276 8.34737 26.2305 7.88243C26.6333 7.41749 27.1313 7.0446 27.6909 6.78902C28.2504 6.53344 28.8584 6.40115 29.4736 6.40112C30.0887 6.4011 30.6967 6.53333 31.2563 6.78886C31.8159 7.04439 32.314 7.41725 32.7168 7.88215C33.1197 8.34705 33.4179 8.89313 33.5912 9.48337C33.7645 10.0736 33.8089 10.6942 33.7213 11.3031C33.6338 11.912 33.4163 12.495 33.0837 13.0125" stroke="black" stroke-width="2" stroke-miterlimit="10" stroke-linecap="round"/>
<path d="M20.3587 13.1475C20.3587 13.1475 22.7675 15.1775 24.31 15.1775" stroke="black" stroke-width="2" stroke-miterlimit="10" stroke-linecap="round"/>
<path d="M33.1912 13.1338C32.7449 12.7586 32.2752 12.412 31.785 12.0963" stroke="black" stroke-width="2" stroke-miterlimit="10" stroke-linecap="round" stroke-linejoin="round"/>
</g>
<defs>
<clipPath id="clip0_17_75">
<rect width="40" height="40" fill="white"/>
</clipPath>
</defs>
</svg>
