<svg width="400" height="400" viewBox="0 0 400 400" fill="none" xmlns="http://www.w3.org/2000/svg">
<g id="zen-brain-icon">
<path id="BORDER" d="M350 194.816C350 183.753 345.07 173.268 336.355 165.558C337.735 161.6 338.434 157.506 338.434 153.348C338.434 133.343 322.42 116.636 301.281 112.962C302.897 109.352 303.735 105.483 303.735 101.512C303.735 88.84 295.145 77.935 282.911 73.2218C262.529 58.6715 240.238 50 223.133 50C213.624 50 205.193 54.1909 200 60.616C194.807 54.1909 186.376 50 176.867 50C159.762 50 137.471 58.6715 117.089 73.2218C104.855 77.935 96.2651 88.84 96.2651 101.512C96.2651 105.483 97.1029 109.352 98.7186 112.962C77.5798 116.636 61.5663 133.343 61.5663 153.348C61.5663 157.506 62.2639 161.599 63.6446 165.558C54.9301 173.268 50 183.753 50 194.816C50 203.465 52.9993 211.495 58.1058 218.126C52.799 225.002 50 233.023 50 241.469C50 256.429 59.099 270.135 73.5055 277.362C73.2576 279.21 73.1325 281.075 73.1325 282.937C73.1325 303.117 87.8181 320.958 109.125 327.039C118.393 341.256 135.276 350 153.735 350C173.972 350 191.52 339.516 200 324.293C208.48 339.516 226.028 350 246.265 350C264.724 350 281.606 341.256 290.875 327.039C312.182 320.958 326.867 303.116 326.867 282.937C326.867 281.075 326.742 279.21 326.494 277.362C340.901 270.135 350 256.429 350 241.469C350 233.023 347.201 225.002 341.894 218.126C347.001 211.495 350 203.465 350 194.816ZM153.735 340.281C138.533 340.281 124.681 332.768 117.584 320.676C116.88 319.478 115.653 318.598 114.195 318.246C96.4024 313.954 83.9759 299.435 83.9759 282.937C83.9759 280.469 84.2535 277.996 84.8007 275.587C85.3082 273.354 84.0149 271.103 81.6908 270.177C69.0265 265.13 60.8434 253.861 60.8434 241.469C60.8434 235.832 62.4742 230.445 65.5863 225.672C73.6798 232.068 84.2911 235.961 95.9036 235.961C98.8978 235.961 101.325 233.786 101.325 231.102C101.325 228.417 98.8978 226.242 95.9036 226.242C76.5713 226.242 60.8434 212.144 60.8434 194.816C60.8434 185.489 65.4352 176.697 73.4419 170.699C75.2492 169.345 75.8745 167.1 74.9889 165.144C73.2771 161.362 72.4096 157.394 72.4096 153.348C72.4096 136.02 88.1376 121.922 107.47 121.922C126.802 121.922 142.53 136.02 142.53 153.348C142.53 156.032 144.958 158.207 147.952 158.207C150.946 158.207 153.373 156.032 153.373 153.348C153.373 131.549 134.36 113.665 110.419 112.297C108.248 109.046 107.108 105.348 107.108 101.512C107.108 92.8495 112.975 85.3942 121.333 82.1648C121.657 82.0786 121.973 81.9659 122.279 81.8233C124.868 80.9408 127.673 80.4536 130.602 80.4536C139.68 80.4536 147.783 85.0028 151.751 92.3272C153.06 94.7421 156.304 95.749 158.997 94.5756C161.69 93.4035 162.814 90.4961 161.505 88.0819C156.976 79.7214 148.403 73.7123 138.53 71.5838C152.368 64.0158 165.991 59.7192 176.867 59.7192C186.633 59.7192 194.578 66.8402 194.578 75.594V138.478C189.707 135.014 183.554 132.937 176.867 132.937C173.873 132.937 171.446 135.113 171.446 137.797C171.446 140.481 173.873 142.657 176.867 142.657C186.633 142.657 194.578 149.778 194.578 158.531V275.343C187.837 267.547 178.334 261.664 167.155 258.972C164.265 258.278 161.29 259.812 160.513 262.404C159.736 264.996 161.45 267.662 164.342 268.358C182.145 272.645 194.578 287.167 194.578 303.672C194.578 323.858 176.256 340.281 153.735 340.281ZM318.309 270.177C315.985 271.104 314.692 273.354 315.199 275.588C315.747 277.997 316.024 280.469 316.024 282.938C316.024 299.435 303.598 313.955 285.805 318.247C284.347 318.598 283.119 319.479 282.416 320.677C275.319 332.768 261.467 340.281 246.265 340.281C223.744 340.281 205.422 323.858 205.422 303.672C205.422 302.305 205.351 300.95 205.219 299.608C205.347 299.193 205.422 298.757 205.422 298.305V137.797C205.422 129.043 213.367 121.922 223.133 121.922C226.127 121.922 228.554 119.747 228.554 117.063C228.554 114.378 226.127 112.203 223.133 112.203C216.446 112.203 210.293 114.28 205.422 117.744V75.594C205.422 66.8402 213.367 59.7192 223.133 59.7192C234.009 59.7192 247.632 64.0158 261.47 71.5838C251.597 73.7117 243.024 79.7214 238.495 88.0819C237.186 90.4968 238.31 93.4041 241.003 94.5756C243.697 95.7484 246.94 94.7421 248.249 92.3272C252.217 85.0028 260.32 80.4536 269.398 80.4536C272.327 80.4536 275.132 80.9408 277.721 81.8233C278.026 81.9659 278.343 82.078 278.664 82.1641C287.024 85.3935 292.892 92.8488 292.892 101.512C292.892 105.348 291.752 109.046 289.581 112.297C265.64 113.665 246.627 131.549 246.627 153.348C246.627 156.032 249.054 158.207 252.048 158.207C255.042 158.207 257.47 156.032 257.47 153.348C257.47 136.02 273.198 121.922 292.53 121.922C311.862 121.922 327.59 136.02 327.59 153.348C327.59 157.394 326.723 161.362 325.012 165.144C324.126 167.1 324.752 169.345 326.559 170.699C334.565 176.697 339.157 185.489 339.157 194.816C339.157 212.144 323.429 226.242 304.096 226.242C301.102 226.242 298.675 228.417 298.675 231.102C298.675 233.786 301.102 235.961 304.096 235.961C315.709 235.961 326.32 232.068 334.414 225.672C337.526 230.445 339.157 235.832 339.157 241.469C339.157 253.861 330.974 265.13 318.309 270.177Z" fill="white" fill-opacity="0.75"/>
<g id="Group 1" filter="url(#filter0_df_0_1)">
<path id="BL" d="M164.94 236.285C164.94 233.601 162.512 231.425 159.518 231.425C134.207 231.425 113.614 249.883 113.614 272.57C113.614 272.805 113.624 273.04 113.628 273.275C111.612 273.032 109.559 272.894 107.47 272.894C104.476 272.894 102.048 275.069 102.048 277.754C102.048 280.438 104.476 282.613 107.47 282.613C126.802 282.613 142.53 296.711 142.53 314.039C142.53 316.723 144.958 318.898 147.952 318.898C150.946 318.898 153.373 316.723 153.373 314.039C153.373 296.796 141.473 282.006 124.652 275.896C124.524 274.795 124.458 273.681 124.458 272.57C124.458 255.242 140.186 241.145 159.518 241.145C162.512 241.145 164.94 238.97 164.94 236.285Z" fill="#BEE2B2"/>
<path id="TR" d="M292.53 205.508C281.299 205.508 271.889 198.405 269.582 188.95C292.083 186.318 309.518 169.038 309.518 148.164C309.518 145.48 307.091 143.305 304.096 143.305C301.102 143.305 298.675 145.48 298.675 148.164C298.675 165.492 282.947 179.59 263.614 179.59C254.114 179.59 245.219 176.239 238.569 170.155C236.474 168.238 233.041 168.207 230.902 170.085C228.763 171.963 228.728 175.04 230.823 176.957C238.343 183.836 248.056 188.039 258.579 189.059C261.068 203.851 275.344 215.227 292.53 215.227C295.524 215.227 297.952 213.052 297.952 210.367C297.952 207.683 295.524 205.508 292.53 205.508Z" fill="#BEE2B2"/>
</g>
<g id="Group 2" filter="url(#filter1_df_0_1)">
<path id="TL" d="M141.984 194.134C139.678 203.589 130.267 210.691 119.036 210.691C116.042 210.691 113.614 212.866 113.614 215.551C113.614 218.235 116.042 220.41 119.036 220.41C136.222 220.41 150.498 209.034 152.987 194.242C163.51 193.222 173.223 189.02 180.743 182.141C182.839 180.223 182.803 177.146 180.664 175.268C178.526 173.391 175.093 173.421 172.997 175.338C166.347 181.423 157.453 184.773 147.952 184.773C128.62 184.773 112.892 170.676 112.892 153.348C112.892 150.663 110.464 148.488 107.47 148.488C104.476 148.488 102.048 150.663 102.048 153.348C102.048 174.221 119.484 191.502 141.984 194.134Z" fill="#FCAAAA"/>
<path id="BR" d="M275.181 262.527C273.092 262.527 271.039 262.664 269.022 262.908C269.027 262.673 269.036 262.438 269.036 262.203C269.036 239.516 248.444 221.058 223.133 221.058C220.138 221.058 217.711 223.234 217.711 225.918C217.711 228.602 220.138 230.778 223.133 230.778C242.465 230.778 258.193 244.875 258.193 262.203C258.193 263.314 258.127 264.428 257.998 265.529C241.177 271.639 229.277 286.429 229.277 303.672C229.277 306.356 231.705 308.531 234.699 308.531C237.693 308.531 240.121 306.356 240.121 303.672C240.121 286.344 255.848 272.246 275.181 272.246C278.175 272.246 280.602 270.071 280.602 267.387C280.602 264.702 278.175 262.527 275.181 262.527Z" fill="#FCAAAA"/>
</g>
</g>
<defs>
<filter id="filter0_df_0_1" x="97.0482" y="138.305" width="217.47" height="188.594" filterUnits="userSpaceOnUse" color-interpolation-filters="sRGB">
<feFlood flood-opacity="0" result="BackgroundImageFix"/>
<feColorMatrix in="SourceAlpha" type="matrix" values="0 0 0 0 0 0 0 0 0 0 0 0 0 0 0 0 0 0 127 0" result="hardAlpha"/>
<feOffset dy="4"/>
<feGaussianBlur stdDeviation="2"/>
<feComposite in2="hardAlpha" operator="out"/>
<feColorMatrix type="matrix" values="0 0 0 0 0 0 0 0 0 0 0 0 0 0 0 0 0 0 0.25 0"/>
<feBlend mode="normal" in2="BackgroundImageFix" result="effect1_dropShadow_0_1"/>
<feBlend mode="normal" in="SourceGraphic" in2="effect1_dropShadow_0_1" result="shape"/>
<feGaussianBlur stdDeviation="2.5" result="effect2_foregroundBlur_0_1"/>
</filter>
<filter id="filter1_df_0_1" x="97.0482" y="143.488" width="188.554" height="173.043" filterUnits="userSpaceOnUse" color-interpolation-filters="sRGB">
<feFlood flood-opacity="0" result="BackgroundImageFix"/>
<feColorMatrix in="SourceAlpha" type="matrix" values="0 0 0 0 0 0 0 0 0 0 0 0 0 0 0 0 0 0 127 0" result="hardAlpha"/>
<feOffset dy="4"/>
<feGaussianBlur stdDeviation="2"/>
<feComposite in2="hardAlpha" operator="out"/>
<feColorMatrix type="matrix" values="0 0 0 0 0 0 0 0 0 0 0 0 0 0 0 0 0 0 0.25 0"/>
<feBlend mode="normal" in2="BackgroundImageFix" result="effect1_dropShadow_0_1"/>
<feBlend mode="normal" in="SourceGraphic" in2="effect1_dropShadow_0_1" result="shape"/>
<feGaussianBlur stdDeviation="2.5" result="effect2_foregroundBlur_0_1"/>
</filter>
</defs>
</svg>
